<svg xmlns="http://www.w3.org/2000/svg" xmlns:xlink="http://www.w3.org/1999/xlink" width="480" zoomAndPan="magnify" viewBox="0 0 360 359.999987" height="480" preserveAspectRatio="xMidYMid meet" version="1.0"><defs><clipPath id="47ba666309"><path d="M 264 0.292969 L 346 0.292969 L 346 24 L 264 24 Z M 264 0.292969 " clip-rule="nonzero"/></clipPath><clipPath id="670e231a6a"><path d="M 145 0.292969 L 226 0.292969 L 226 24 L 145 24 Z M 145 0.292969 " clip-rule="nonzero"/></clipPath><clipPath id="94c1000a9b"><path d="M 190 0.292969 L 301 0.292969 L 301 127 L 190 127 Z M 190 0.292969 " clip-rule="nonzero"/></clipPath><clipPath id="1cdf465dd3"><path d="M 70 0.292969 L 181 0.292969 L 181 127 L 70 127 Z M 70 0.292969 " clip-rule="nonzero"/></clipPath><clipPath id="87bd3ea401"><path d="M 25 0.292969 L 107 0.292969 L 107 24 L 25 24 Z M 25 0.292969 " clip-rule="nonzero"/></clipPath><clipPath id="d716d0f137"><path d="M 0 0.292969 L 360 0.292969 L 360 346.042969 L 0 346.042969 Z M 0 0.292969 " clip-rule="nonzero"/></clipPath></defs><g clip-path="url(#47ba666309)"><path fill="#293a80" d="M 345.503906 0.0429688 L 332.546875 7.550781 L 305.121094 23.433594 L 277.683594 7.550781 L 264.726562 0.0429688 Z M 345.503906 0.0429688 " fill-opacity="1" fill-rule="evenodd"/></g><g clip-path="url(#670e231a6a)"><path fill="#537ec5" d="M 225.925781 0.0429688 L 213.0625 7.550781 L 185.53125 23.433594 L 158.105469 7.550781 L 145.242188 0.0429688 Z M 225.925781 0.0429688 " fill-opacity="1" fill-rule="evenodd"/></g><g clip-path="url(#94c1000a9b)"><path fill="#537ec5" d="M 217.855469 15.910156 L 245.371094 0.132812 L 272.796875 15.910156 L 300.238281 31.789062 L 300.238281 95.195312 L 272.796875 111.066406 L 245.371094 126.945312 L 217.855469 111.066406 L 190.414062 95.195312 L 190.414062 31.789062 Z M 217.855469 15.910156 " fill-opacity="1" fill-rule="evenodd"/></g><path fill="#537ec5" d="M 250.164062 135.304688 L 277.683594 119.4375 L 305.121094 103.648438 L 332.546875 119.4375 L 359.972656 135.304688 L 359.972656 198.710938 L 332.546875 214.589844 L 305.121094 230.460938 L 277.683594 214.589844 L 250.164062 198.710938 Z M 250.164062 135.304688 " fill-opacity="1" fill-rule="evenodd"/><path fill="#293a80" d="M 310.007812 95.195312 L 310.007812 31.789062 L 337.433594 15.910156 L 359.972656 2.863281 L 359.972656 124.125 L 337.433594 111.066406 Z M 310.007812 95.195312 " fill-opacity="1" fill-rule="evenodd"/><path fill="#537ec5" d="M 130.679688 135.304688 L 158.105469 119.4375 L 185.636719 103.648438 L 213.0625 119.4375 L 240.488281 135.304688 L 240.488281 198.710938 L 213.0625 214.589844 L 185.636719 230.460938 L 158.105469 214.589844 L 130.679688 198.710938 Z M 130.679688 135.304688 " fill-opacity="1" fill-rule="evenodd"/><path fill="#293a80" d="M 310.007812 302.222656 L 310.007812 238.816406 L 337.433594 222.949219 L 359.972656 209.890625 L 359.972656 331.164062 L 337.433594 318.105469 Z M 310.007812 302.222656 " fill-opacity="1" fill-rule="evenodd"/><g clip-path="url(#1cdf465dd3)"><path fill="#293a80" d="M 70.929688 31.789062 L 98.367188 15.910156 L 125.792969 0.0429688 L 153.3125 15.910156 L 180.75 31.789062 L 180.75 95.195312 L 153.3125 111.066406 L 125.792969 126.945312 L 98.367188 111.066406 L 70.929688 95.195312 Z M 70.929688 31.789062 " fill-opacity="1" fill-rule="evenodd"/></g><g clip-path="url(#87bd3ea401)"><path fill="#293a80" d="M 106.4375 0.0429688 L 93.484375 7.550781 L 66.042969 23.433594 L 38.617188 7.550781 L 25.648438 0.0429688 Z M 106.4375 0.0429688 " fill-opacity="1" fill-rule="evenodd"/></g><g clip-path="url(#d716d0f137)"><path fill="#293a80" d="M 6.308594 0.0429688 L 61.265625 31.789062 L 61.265625 100.839844 L 121.015625 135.316406 L 121.015625 204.367188 L 185.648438 241.652344 C 205.566406 230.09375 225.480469 218.640625 245.398438 207.082031 C 263.722656 217.699219 282.03125 228.316406 300.355469 238.832031 L 300.355469 307.867188 L 360 342.34375 L 360 346.015625 C 339.027344 333.882812 318.078125 321.773438 297.128906 309.65625 L 297.128906 240.605469 L 245.371094 210.738281 L 185.53125 245.21875 C 162.988281 232.25 140.449219 219.203125 117.800781 206.140625 L 117.800781 137.09375 C 97.886719 125.625 77.96875 114.171875 58.050781 102.613281 L 58.050781 33.566406 L 0 0.0273438 L 6.308594 0.0273438 Z M 6.308594 0.0429688 " fill-opacity="1" fill-rule="nonzero"/></g></svg>